<svg width="1920" height="240" viewBox="0 0 1920 240" xmlns="http://www.w3.org/2000/svg"><path d="M1920,240C1633.3333333333333,264,289.1666666666667,244.5,0,240C-289.1666666666667,235.5,122,218.83333333333334,185,213C248,207.16666666666666,314.5,213.66666666666666,378,205C441.5,196.33333333333334,501.5,170.83333333333334,566,161C630.5,151.16666666666666,699.8333333333334,156,765,146C830.1666666666666,136,893.5,93.66666666666667,957,101C1020.5,108.33333333333333,1083,184.33333333333334,1146,190C1209,195.66666666666666,1270.6666666666667,137.16666666666666,1335,135C1399.3333333333333,132.83333333333334,1467.8333333333333,183.5,1532,177C1596.1666666666667,170.5,1655.3333333333333,85.5,1720,96C1784.6666666666667,106.5,2206.6666666666665,216,1920,240C1633.3333333333333,264,289.1666666666667,244.5,0,240" fill="#db9e81"/></svg>