<svg width="1920" height="240" viewBox="0 0 1920 240" xmlns="http://www.w3.org/2000/svg"><path d="M1920,240C1633,263.1666666666667,289.6666666666667,258.1666666666667,0,240C-289.6666666666667,221.83333333333334,119.16666666666666,142,182,131C244.83333333333334,120,311.8333333333333,171.33333333333334,377,174C442.1666666666667,176.66666666666666,508,150,573,147C638,144,702.8333333333334,152.5,767,156C831.1666666666666,159.5,894,166.66666666666666,958,168C1022,169.33333333333334,1087.6666666666667,174.16666666666666,1151,164C1214.3333333333333,153.83333333333334,1275.3333333333333,102.5,1338,107C1400.6666666666667,111.5,1463,192,1527,191C1591,190,1656.5,92.83333333333333,1722,101C1787.5,109.16666666666667,2207,216.83333333333334,1920,240C1633,263.1666666666667,289.6666666666667,258.1666666666667,0,240" fill="#db9e81"/></svg>