<svg width="1920" height="240" viewBox="0 0 1920 240" xmlns="http://www.w3.org/2000/svg"><path d="M1920,240C1633.3333333333333,243.5,288.3333333333333,245.5,0,240C-288.3333333333333,234.5,127,220.66666666666666,190,207C253,193.33333333333334,314.5,176.5,378,158C441.5,139.5,507.3333333333333,107.66666666666667,571,96C634.6666666666666,84.33333333333333,695.8333333333334,72.33333333333333,760,88C824.1666666666666,103.66666666666667,891.5,178.66666666666666,956,190C1020.5,201.33333333333334,1084,154.83333333333334,1147,156C1210,157.16666666666666,1270.3333333333333,199.16666666666666,1334,197C1397.6666666666667,194.83333333333334,1464.6666666666667,139.33333333333334,1529,143C1593.3333333333333,146.66666666666666,1654.8333333333333,202.83333333333334,1720,219C1785.1666666666667,235.16666666666666,2206.6666666666665,236.5,1920,240C1633.3333333333333,243.5,288.3333333333333,245.5,0,240" fill="#db9e81"/></svg>